<svg width="213" height="213" xmlns="http://www.w3.org/2000/svg" xmlns:xlink="http://www.w3.org/1999/xlink" xml:space="preserve" overflow="hidden"><g transform="translate(-804 -680)"><path d="M809 786.5C809 730.443 854.443 685 910.5 685 966.557 685 1012 730.443 1012 786.5 1012 842.557 966.557 888 910.5 888 854.443 888 809 842.557 809 786.5Z" stroke="#000000" stroke-width="10.3125" stroke-miterlimit="8" fill="#FFFFFF" fill-rule="evenodd"/><path d="M963 848 963 843.977 940.552 843.977 931.918 764.084 931.918 738.794 938.825 738.794 913.5 725 886.448 738.794 893.354 738.794 893.354 764.084 883.57 843.977 864 843.977 864 848 963 848 963 848ZM934.796 843.977 889.325 843.977 911.773 808.916 934.796 843.977 934.796 843.977ZM927.889 761.21 896.232 761.21 896.232 738.794 927.889 738.794 927.889 761.21 927.889 761.21ZM910.622 804.318 887.599 839.378 895.081 780.752 910.622 804.318 910.622 804.318ZM935.948 839.378 914.651 806.042 929.041 781.902 935.948 839.378 935.948 839.378ZM927.889 779.603 911.773 802.019 897.959 779.603 927.889 779.603 927.889 779.603ZM929.041 773.855 895.081 773.855 896.232 766.958 927.889 766.958 929.041 773.855 929.041 773.855ZM930.192 735.921 895.081 735.921 913.5 726.149 930.192 735.921 930.192 735.921Z" fill-rule="evenodd"/></g></svg>