<svg width="213" height="213" xmlns="http://www.w3.org/2000/svg" xmlns:xlink="http://www.w3.org/1999/xlink" xml:space="preserve" overflow="hidden"><g transform="translate(-2176 -235)"><path d="M2181 341.5C2181 285.443 2226.44 240 2282.5 240 2338.56 240 2384 285.443 2384 341.5 2384 397.557 2338.56 443 2282.5 443 2226.44 443 2181 397.557 2181 341.5Z" stroke="#000000" stroke-width="10.3125" stroke-miterlimit="8" fill="#FFFFFF" fill-rule="evenodd"/><path d="M2353 330.8C2292.98 312.6 2292.98 312.6 2292.98 312.6 2292.98 294.4 2294.38 286 2294.38 286 2294.38 286 2292.98 284.6 2292.98 283.2 2292.98 281.8 2291.58 280.4 2291.58 279 2291.58 279 2290.19 277.6 2290.19 276.2 2288.79 274.8 2288.79 273.4 2287.4 273.4 2287.4 272 2286 272 2284.6 273.4 2283.21 274.8 2281.81 276.2 2280.42 279 2279.02 283.2 2279.02 284.6 2279.02 286 2279.02 312.6 2279.02 312.6 2279.02 312.6 2219 330.8 2219 330.8 2219 330.8 2220.4 339.2 2220.4 339.2 2220.4 339.2 2279.02 332.2 2279.02 332.2 2279.02 332.2 2279.02 356 2280.42 370 2280.42 374.2 2260.88 384 2260.88 384 2260.88 384 2260.88 389.6 2260.88 389.6 2260.88 389.6 2283.21 386.8 2283.21 386.8 2283.21 386.8 2284.6 389.6 2284.6 392.4 2284.6 393.8 2286 395.2 2286 396.6 2286 398 2287.4 396.6 2287.4 393.8 2287.4 392.4 2288.79 391 2288.79 388.2 2288.79 386.8 2309.73 389.6 2309.73 389.6 2309.73 389.6 2311.12 384 2311.12 384 2311.12 384 2291.58 374.2 2291.58 374.2 2291.58 374.2 2291.58 372.8 2292.98 367.2 2292.98 360.2 2292.98 353.2 2292.98 343.4 2292.98 332.2 2351.6 339.2 2351.6 339.2 2351.6 339.2L2353 330.8Z" fill-rule="evenodd"/></g></svg>