<svg width="213" height="213" xmlns="http://www.w3.org/2000/svg" xmlns:xlink="http://www.w3.org/1999/xlink" xml:space="preserve" overflow="hidden"><g transform="translate(-2239 -694)"><path d="M2408 790.286 2384.43 772 2384.43 744 2371.78 744 2371.78 762.286 2350.5 745.714 2293 790.286 2298.18 798.857 2303.93 793.143 2303.93 848 2322.33 848 2322.33 802.857 2344.75 802.857 2344.75 848 2397.07 848 2397.07 793.143 2403.98 798.857 2408 790.286Z" fill-rule="evenodd"/><path d="M2244 800.5C2244 744.443 2289.44 699 2345.5 699 2401.56 699 2447 744.443 2447 800.5 2447 856.557 2401.56 902 2345.5 902 2289.44 902 2244 856.557 2244 800.5Z" stroke="#000000" stroke-width="10.3125" stroke-miterlimit="8" fill="#FFFFFF" fill-rule="evenodd"/><path d="M2404 786.35 2378.76 766.895 2378.76 740 2367.29 740 2367.29 758.311 2344.93 741.717 2287 786.35 2292.74 793.789 2299.62 788.067 2299.62 843 2316.82 843 2316.82 797.794 2339.19 797.794 2339.19 843 2391.38 843 2391.38 788.067 2398.26 793.789 2404 786.35Z" fill-rule="evenodd"/></g></svg>