<svg width="213" height="213" xmlns="http://www.w3.org/2000/svg" xmlns:xlink="http://www.w3.org/1999/xlink" xml:space="preserve" overflow="hidden"><g transform="translate(-3086 -697)"><path d="M3091 803.5C3091 747.443 3136.44 702 3192.5 702 3248.56 702 3294 747.443 3294 803.5 3294 859.557 3248.56 905 3192.5 905 3136.44 905 3091 859.557 3091 803.5Z" stroke="#000000" stroke-width="10.3125" stroke-miterlimit="8" fill="#FFFFFF" fill-rule="evenodd"/><path d="M3237 810.098C3237 775.672 3237 775.672 3237 775.672 3227.27 744 3227.27 744 3227.27 744 3157.73 744 3157.73 744 3157.73 744 3148 775.672 3148 775.672 3148 775.672 3148 810.098 3148 810.098 3148 810.098 3153.56 810.098 3153.56 810.098 3153.56 810.098 3153.56 822.492 3153.56 822.492 3153.56 822.492 3153.56 823.869 3154.95 825.246 3156.34 826.623 3156.34 828 3159.12 828 3160.52 828 3167.47 828 3167.47 828 3167.47 828 3168.86 828 3170.25 828 3171.64 826.623 3173.03 825.246 3173.03 823.869 3173.03 822.492 3173.03 810.098 3173.03 810.098 3173.03 810.098 3210.58 810.098 3210.58 810.098 3210.58 810.098 3210.58 822.492 3210.58 822.492 3210.58 822.492 3210.58 823.869 3211.97 825.246 3213.36 826.623 3214.75 828 3216.14 828 3217.53 828 3224.48 828 3224.48 828 3224.48 828 3225.88 828 3227.27 828 3228.66 826.623 3230.05 825.246 3231.44 823.869 3231.44 822.492 3231.44 810.098 3231.44 810.098 3231.44 810.098 3237 810.098 3237 810.098 3237 810.098ZM3230.05 774.295C3154.95 774.295 3154.95 774.295 3154.95 774.295 3163.3 750.885 3163.3 750.885 3163.3 750.885 3221.7 750.885 3221.7 750.885 3221.7 750.885 3230.05 774.295 3230.05 774.295 3230.05 774.295ZM3228.66 800.459C3225.88 801.836 3224.48 803.213 3221.7 803.213 3218.92 803.213 3217.53 801.836 3214.75 800.459 3213.36 799.082 3211.97 796.328 3211.97 793.574 3211.97 790.82 3213.36 789.443 3214.75 788.066 3217.53 785.311 3218.92 785.311 3221.7 785.311 3224.48 785.311 3225.88 785.311 3228.66 788.066 3230.05 789.443 3230.05 790.82 3230.05 793.574 3230.05 796.328 3230.05 799.082 3228.66 800.459ZM3168.86 800.459C3167.47 801.836 3164.69 803.213 3163.3 803.213 3160.52 803.213 3157.73 801.836 3156.34 800.459 3154.95 799.082 3153.56 796.328 3153.56 793.574 3153.56 790.82 3154.95 789.443 3156.34 788.066 3157.73 785.311 3160.52 785.311 3163.3 785.311 3164.69 785.311 3167.47 785.311 3168.86 788.066 3171.64 789.443 3171.64 790.82 3171.64 793.574 3171.64 796.328 3171.64 799.082 3168.86 800.459Z" fill-rule="evenodd"/><path d="M3231.24 854.785 3150.91 854.785 3124.13 828 3119 834.987 3150.91 867.013 3150.91 874 3231.24 874 3231.24 867.013 3266 834.987 3259.16 828 3231.24 854.785 3231.24 854.785Z" fill-rule="evenodd"/></g></svg>