<svg width="213" height="213" xmlns="http://www.w3.org/2000/svg" xmlns:xlink="http://www.w3.org/1999/xlink" xml:space="preserve" overflow="hidden"><g transform="translate(-490 -680)"><path d="M495 786.5C495 730.443 540.443 685 596.5 685 652.557 685 698 730.443 698 786.5 698 842.557 652.557 888 596.5 888 540.443 888 495 842.557 495 786.5Z" stroke="#000000" stroke-width="10.3125" stroke-miterlimit="8" fill="#FFFFFF" fill-rule="evenodd"/><path d="M656 800.625C593 745.538 593 745.538 593 745.538 570.6 730 570.6 730 570.6 730 567.8 732.825 567.8 732.825 567.8 732.825 588.8 751.188 588.8 751.188 588.8 751.188 576.2 775.2 576.2 775.2 576.2 775.2 594.4 789.325 594.4 789.325 594.4 789.325 580.4 809.1 580.4 809.1 580.4 809.1 584.6 811.925 584.6 811.925 584.6 811.925 598.6 792.15 598.6 792.15 598.6 792.15 623.8 809.1 623.8 809.1 623.8 809.1 626.6 807.687 629.4 807.687 632.2 807.687 643.4 807.687 649 813.337 650.4 826.05 651.8 830.287 651.8 830.287 651.8 830.287 656 800.625 656 800.625 656 800.625ZM642 816.162C639.2 813.337 635 810.512 630.8 810.512 626.6 810.512 622.4 813.337 619.6 816.162 616.8 818.987 615.4 823.225 615.4 827.462 615.4 831.7 616.8 834.525 619.6 838.762 622.4 841.587 626.6 843 630.8 843 635 843 639.2 841.587 642 838.762 644.8 834.525 646.2 831.7 646.2 827.462 646.2 823.225 644.8 818.987 642 816.162 642 816.162 642 816.162 642 816.162ZM590.2 816.162C590.2 816.162 590.2 817.575 591.6 820.4 591.6 823.225 591.6 824.637 591.6 827.462 611.2 827.462 611.2 827.462 611.2 827.462 611.2 826.05 611.2 823.225 612.6 820.4 612.6 818.987 614 817.575 614 817.575 590.2 816.162 590.2 816.162 590.2 816.162ZM583.2 816.162C580.4 813.337 577.6 810.512 573.4 810.512 567.8 810.512 565 813.337 562.2 816.162 558 818.987 556.6 823.225 556.6 827.462 556.6 831.7 558 834.525 562.2 838.762 565 841.587 567.8 843 573.4 843 577.6 843 580.4 841.587 583.2 838.762 587.4 834.525 588.8 831.7 588.8 827.462 588.8 823.225 587.4 818.987 583.2 816.162 583.2 816.162 583.2 816.162 583.2 816.162ZM569.2 790.737C538.4 792.15 538.4 792.15 538.4 792.15 537 824.637 537 824.637 537 824.637 553.8 824.637 553.8 824.637 553.8 824.637 553.8 820.4 555.2 816.162 559.4 813.337 562.2 810.512 566.4 809.1 569.2 809.1 569.2 790.737 569.2 790.737 569.2 790.737ZM637.8 834.525C636.4 835.937 633.6 837.35 630.8 837.35 628 837.35 626.6 835.937 623.8 834.525 622.4 831.7 621 830.287 621 827.462 621 824.637 622.4 821.812 623.8 820.4 626.6 818.987 628 817.575 630.8 817.575 633.6 817.575 636.4 818.987 637.8 820.4 639.2 821.812 640.6 824.637 640.6 827.462 640.6 830.287 639.2 831.7 637.8 834.525ZM556.6 809.1C541.2 809.1 541.2 809.1 541.2 809.1 541.2 796.387 541.2 796.387 541.2 796.387 556.6 794.975 556.6 794.975 556.6 794.975 556.6 809.1 556.6 809.1 556.6 809.1ZM579 834.525C577.6 835.937 574.8 837.35 572 837.35 570.6 837.35 567.8 835.937 566.4 834.525 563.6 831.7 563.6 830.287 563.6 827.462 563.6 824.637 563.6 821.812 566.4 820.4 567.8 818.987 570.6 817.575 572 817.575 574.8 817.575 577.6 818.987 579 820.4 581.8 821.812 581.8 824.637 581.8 827.462 581.8 830.287 581.8 831.7 579 834.525Z" fill-rule="evenodd"/></g></svg>