<svg width="440" height="140" xmlns="http://www.w3.org/2000/svg" xmlns:xlink="http://www.w3.org/1999/xlink" xml:space="preserve" overflow="hidden"><defs><clipPath id="clip0"><rect x="1073" y="1183" width="440" height="140"/></clipPath></defs><g clip-path="url(#clip0)" transform="translate(-1073 -1183)"><rect x="1074" y="1264" width="439" height="59.0001"/><rect x="1074" y="1269" width="439" height="1.99976" fill="#FFFFFF"/><rect x="1074" y="1316" width="439" height="1" fill="#FFFFFF"/><rect x="1074" y="1293" width="10" height="1" fill="#FFFFFF"/><path d="M1483 1294 1463.2 1294 1463.2 1293 1483 1293 1483 1294ZM1442.91 1294 1423.11 1294 1423.11 1293 1442.91 1293 1442.91 1294ZM1403.3 1294 1383.02 1294 1383.02 1293 1403.3 1293 1403.3 1294ZM1363.21 1294 1343.41 1294 1343.41 1293 1363.21 1293 1363.21 1294ZM1323.61 1294 1303.48 1294 1303.48 1293 1323.61 1293 1323.61 1294ZM1283.52 1294 1263.71 1294 1263.71 1293 1283.52 1293 1283.52 1294ZM1243.59 1294 1223.79 1294 1223.79 1293 1243.59 1293 1243.59 1294ZM1203.82 1294 1184.02 1294 1184.02 1293 1203.82 1293 1203.82 1294ZM1163.89 1294 1144.09 1294 1144.09 1293 1163.89 1293 1163.89 1294ZM1124.29 1294 1104 1294 1104 1293 1124.29 1293 1124.29 1294Z" fill="#FFFFFF" fill-rule="evenodd"/><rect x="1503" y="1293" width="10" height="1" fill="#FFFFFF"/><path d="M1093.62 1221.84C1091.95 1214.24 1080.25 1192.29 1079 1183.84 1081.09 1183 1082.34 1183 1086.94 1183 1093.62 1186.8 1105.73 1202.84 1115.75 1207.91 1124.52 1211.29 1124.52 1210.87 1139.14 1212.56 1153.34 1212.13 1177.98 1206.22 1196.36 1203.27 1214.74 1200.31 1237.29 1196.51 1248.98 1194.82 1261.09 1193.13 1261.93 1193.13 1267.78 1193.56 1272.79 1193.98 1286.99 1198.2 1290.33 1202.42 1291.58 1203.69 1292 1204.11 1290.33 1206.22 1289.49 1207.07 1287.82 1207.91 1285.74 1209.18 1284.48 1210.02 1282.81 1210.44 1281.56 1211.29 1281.14 1211.29 1280.72 1211.71 1280.31 1211.71 1280.72 1212.56 1281.14 1213.82 1280.72 1214.24 1279.89 1215.09 1276.96 1216.36 1274.46 1217.2 1274.04 1217.62 1274.46 1218.04 1274.04 1218.04 1274.46 1218.04 1275.29 1218.47 1275.71 1218.89 1276.13 1219.73 1276.13 1220.58 1275.71 1221.42 1275.29 1222.27 1274.04 1222.69 1273.21 1222.27 1272.37 1222.27 1271.95 1222.69 1271.54 1222.27 1270.7 1221.84 1270.7 1221.42 1270.28 1220.58 1270.28 1219.73 1270.7 1218.89 1271.12 1218.47 1271.54 1218.04 1272.37 1218.04 1272.79 1218.04 1272.79 1218.04 1272.79 1217.62 1272.79 1217.62 1271.12 1218.04 1269.45 1218.47 1268.61 1218.47 1267.36 1218.47 1267.36 1217.2 1267.36 1216.36 1261.93 1217.62 1242.3 1220.58 1236.04 1221.84 1235.62 1221.84 1235.2 1222.27 1234.78 1222.27 1235.2 1222.69 1235.2 1224.8 1234.78 1226.91 1234.78 1226.91 1234.78 1227.33 1234.78 1227.33 1234.36 1227.76 1233.11 1227.76 1232.28 1228.18 1230.61 1228.6 1228.52 1229.44 1226.43 1229.87 1222.67 1230.71 1218.49 1231.13 1216.41 1231.56 1215.57 1231.56 1215.15 1231.98 1214.32 1231.56 1213.9 1230.71 1214.74 1229.87 1210.56 1229.87 1209.72 1229.44 1209.72 1227.33 1209.31 1226.49 1208.89 1226.91 1208.05 1226.91 1207.64 1226.91 1203.88 1227.76 1198.86 1228.6 1193.02 1229.44 1193.85 1229.44 1193.85 1229.44 1193.85 1229.44 1193.85 1229.44 1193.85 1229.44 1193.85 1229.44 1194.27 1230.29 1194.27 1231.13 1193.85 1231.98 1194.27 1231.98 1195.11 1232.4 1195.94 1233.24 1196.78 1234.09 1196.78 1235.78 1195.94 1237.04 1195.52 1238.31 1193.85 1239.16 1192.18 1238.31 1191.35 1238.31 1190.51 1238.73 1189.68 1237.89 1188.01 1237.04 1187.59 1234.09 1189.26 1232.4 1190.09 1231.98 1190.93 1231.98 1191.76 1231.98 1192.18 1231.13 1191.76 1230.71 1191.35 1229.87 1189.26 1230.29 1187.17 1230.71 1184.66 1231.13 1183.83 1231.13 1183.41 1231.13 1182.16 1231.56 1182.16 1231.98 1182.16 1232.82 1182.16 1233.24 1182.58 1233.24 1183.41 1233.24 1184.25 1234.51 1185.08 1235.36 1185.08 1237.04 1184.66 1237.89 1184.25 1239.16 1182.16 1240 1180.49 1239.16 1179.65 1239.58 1179.24 1239.58 1177.98 1239.16 1177.56 1238.31 1177.15 1237.47 1176.73 1236.62 1176.73 1235.36 1177.15 1234.51 1177.98 1233.67 1178.4 1233.24 1179.24 1233.24 1180.49 1233.24 1180.49 1232.82 1180.49 1232.4 1180.49 1231.98 1180.49 1231.98 1180.49 1231.98 1180.49 1231.98 1172.14 1233.24 1162.11 1235.36 1154.18 1235.78 1144.99 1236.62 1139.98 1236.62 1129.54 1236.2 1119.09 1235.36 1099.05 1233.67 1091.53 1231.13 1091.11 1231.13 1091.11 1231.13 1091.11 1231.13 1091.11 1231.13 1091.11 1231.13 1091.11 1231.13 1091.11 1231.13 1091.11 1231.13 1091.11 1231.13 1098.63 1231.98 1121.18 1228.18 1129.54 1226.91 1142.9 1224.38 1156.68 1222.27 1170.46 1219.73 1180.91 1218.04 1190.93 1216.36 1201.37 1214.67 1216.82 1211.71 1232.28 1209.6 1247.73 1206.64 1259.01 1204.96 1269.86 1203.27 1281.14 1201.58 1275.71 1201.16 1269.86 1200.73 1263.18 1201.16 1244.81 1203.27 1201.79 1210.44 1172.97 1215.51 1161.28 1217.62 1149.58 1219.31 1137.47 1221.42 1126.61 1223.11 1115.75 1225.22 1104.89 1226.49 1100.3 1227.33 1092.36 1229.02 1088.61 1228.18 1087.77 1226.49 1087.35 1224.8 1087.35 1223.96 1089.44 1222.69 1091.53 1223.11 1093.62 1221.84ZM1272.37 1195.67C1271.54 1196.09 1273.21 1199.89 1274.46 1199.89 1277.38 1199.89 1280.72 1200.31 1283.65 1200.31 1287.82 1200.73 1277.38 1196.09 1272.37 1195.67ZM1182.58 1234.09C1183.41 1234.09 1184.25 1235.36 1183.83 1236.2 1183.83 1237.47 1183.41 1238.31 1182.58 1238.31 1182.16 1238.31 1181.32 1237.47 1181.32 1236.2 1181.32 1235.36 1182.16 1234.09 1182.58 1234.09ZM1179.65 1233.67C1179.24 1233.67 1178.4 1233.67 1177.98 1234.51 1177.15 1235.36 1177.56 1237.04 1177.98 1237.89 1178.4 1238.73 1179.24 1238.73 1179.65 1238.73 1177.56 1237.89 1177.56 1234.51 1179.65 1233.67ZM1274.46 1218.89C1274.88 1218.89 1275.29 1219.73 1275.29 1220.58 1275.29 1221 1274.88 1221.84 1274.46 1221.84 1274.04 1221.84 1273.62 1221 1273.62 1220.58 1273.62 1219.73 1274.04 1218.89 1274.46 1218.89ZM1272.37 1218.47C1271.95 1218.47 1271.54 1218.47 1271.12 1218.89 1270.7 1219.73 1270.7 1220.58 1271.12 1221.42 1271.54 1221.84 1271.95 1221.84 1272.37 1221.84 1271.12 1221.42 1270.7 1219.31 1272.37 1218.47ZM1194.69 1233.24C1195.52 1233.24 1196.36 1234.09 1195.94 1235.36 1195.94 1236.2 1195.52 1237.47 1194.69 1237.47 1194.27 1237.47 1193.44 1236.2 1193.44 1235.36 1193.44 1234.09 1194.27 1233.24 1194.69 1233.24ZM1190.93 1232.4C1190.51 1232.4 1190.09 1232.82 1189.68 1233.24 1188.84 1234.09 1188.84 1235.78 1189.68 1236.62 1190.09 1237.47 1190.51 1237.47 1191.35 1237.47 1189.26 1236.62 1188.84 1233.24 1190.93 1232.4ZM1251.49 1202.84C1252.32 1202.84 1252.32 1202.84 1252.32 1202.84 1252.32 1202.42 1252.74 1202.84 1252.74 1203.27 1252.74 1204.96 1252.74 1204.96 1252.74 1204.96 1252.74 1205.38 1252.74 1205.8 1252.32 1205.8 1251.49 1205.8 1251.49 1205.8 1251.49 1205.8 1251.49 1205.8 1251.07 1205.8 1251.07 1205.38 1251.07 1203.27 1251.07 1203.27 1251.07 1203.27 1251.07 1203.27 1251.07 1202.84 1251.49 1202.84ZM1178.82 1215.09C1179.65 1215.09 1179.65 1215.09 1179.65 1215.09 1179.65 1215.09 1180.07 1215.09 1180.07 1215.51 1180.07 1217.2 1180.07 1217.2 1180.07 1217.2 1180.07 1217.62 1180.07 1218.04 1179.65 1218.04 1178.82 1218.04 1178.82 1218.04 1178.82 1218.04 1178.4 1218.04 1178.4 1218.04 1178.4 1217.62 1178.4 1215.93 1178.4 1215.93 1178.4 1215.93 1178.4 1215.51 1178.4 1215.09 1178.82 1215.09ZM1183.41 1214.24C1184.25 1214.24 1184.25 1214.24 1184.25 1214.24 1184.25 1214.24 1184.66 1214.24 1184.66 1214.67 1184.66 1216.78 1184.66 1216.78 1184.66 1216.78 1184.66 1216.78 1184.66 1217.2 1184.25 1217.2 1183.41 1217.2 1183.41 1217.2 1183.41 1217.2 1183.41 1217.62 1182.99 1217.2 1182.99 1216.78 1182.99 1215.09 1182.99 1215.09 1182.99 1215.09 1182.99 1214.67 1182.99 1214.24 1183.41 1214.24ZM1188.01 1213.4C1188.42 1213.4 1188.42 1213.4 1188.42 1213.4 1188.84 1213.4 1189.26 1213.4 1189.26 1213.82 1189.26 1215.93 1189.26 1215.93 1189.26 1215.93 1189.26 1215.93 1188.84 1216.36 1188.84 1216.36 1188.01 1216.36 1188.01 1216.36 1188.01 1216.36 1187.59 1216.36 1187.59 1216.36 1187.59 1215.93 1187.17 1214.24 1187.17 1214.24 1187.17 1214.24 1187.17 1213.82 1187.59 1213.4 1188.01 1213.4ZM1192.6 1212.56C1193.44 1212.56 1193.44 1212.56 1193.44 1212.56 1193.85 1212.56 1193.85 1212.56 1193.85 1212.98 1194.27 1215.09 1194.27 1215.09 1194.27 1215.09 1194.27 1215.09 1193.85 1215.51 1193.44 1215.51 1193.02 1215.51 1193.02 1215.51 1193.02 1215.51 1192.6 1215.51 1192.18 1215.51 1192.18 1215.09 1192.18 1213.4 1192.18 1213.4 1192.18 1213.4 1192.18 1212.98 1192.6 1212.56 1192.6 1212.56ZM1174.22 1215.93C1175.06 1215.51 1175.06 1215.51 1175.06 1215.51 1175.06 1215.51 1175.48 1215.93 1175.48 1216.36 1175.48 1218.04 1175.48 1218.04 1175.48 1218.04 1175.48 1218.47 1175.48 1218.47 1175.06 1218.89 1174.22 1218.89 1174.22 1218.89 1174.22 1218.89 1174.22 1218.89 1173.81 1218.47 1173.81 1218.47 1173.81 1216.36 1173.81 1216.36 1173.81 1216.36 1173.81 1215.93 1173.81 1215.93 1174.22 1215.93ZM1197.19 1211.71C1197.61 1211.71 1197.61 1211.71 1197.61 1211.71 1198.03 1211.71 1198.45 1211.71 1198.45 1212.13 1198.45 1213.82 1198.45 1213.82 1198.45 1213.82 1198.45 1214.24 1198.03 1214.67 1198.03 1214.67 1197.19 1214.67 1197.19 1214.67 1197.19 1214.67 1196.78 1214.67 1196.78 1214.67 1196.36 1214.24 1196.36 1212.56 1196.36 1212.56 1196.36 1212.56 1196.36 1212.13 1196.78 1211.71 1197.19 1211.71ZM1201.37 1210.87C1201.79 1210.87 1201.79 1210.87 1201.79 1210.87 1202.21 1210.87 1202.62 1210.87 1202.62 1211.29 1202.62 1213.4 1202.62 1213.4 1202.62 1213.4 1202.62 1213.4 1202.21 1213.82 1202.21 1213.82 1201.37 1213.82 1201.37 1213.82 1201.37 1213.82 1200.95 1214.24 1200.95 1213.82 1200.95 1213.4 1200.54 1211.71 1200.54 1211.71 1200.54 1211.71 1200.54 1211.29 1200.95 1210.87 1201.37 1210.87ZM1205.55 1210.02C1205.96 1210.02 1205.96 1210.02 1205.96 1210.02 1206.38 1210.02 1206.8 1210.44 1206.8 1210.44 1206.8 1212.56 1206.8 1212.56 1206.8 1212.56 1206.8 1212.98 1206.8 1212.98 1206.38 1213.4 1205.55 1213.4 1205.55 1213.4 1205.55 1213.4 1205.13 1213.4 1205.13 1212.98 1205.13 1212.98 1205.13 1210.87 1205.13 1210.87 1205.13 1210.87 1204.71 1210.44 1205.13 1210.44 1205.55 1210.02ZM1209.72 1209.6C1210.56 1209.6 1210.56 1209.6 1210.56 1209.6 1210.56 1209.18 1210.98 1209.6 1210.98 1210.02 1210.98 1211.71 1210.98 1211.71 1210.98 1211.71 1210.98 1212.13 1210.98 1212.56 1210.56 1212.56 1209.72 1212.56 1209.72 1212.56 1209.72 1212.56 1209.72 1212.56 1209.31 1212.56 1209.31 1212.13 1209.31 1210.02 1209.31 1210.02 1209.31 1210.02 1209.31 1210.02 1209.31 1209.6 1209.72 1209.6ZM1213.9 1208.76C1214.74 1208.76 1214.74 1208.76 1214.74 1208.76 1214.74 1208.76 1215.15 1208.76 1215.15 1209.18 1215.15 1211.29 1215.15 1211.29 1215.15 1211.29 1215.15 1211.29 1215.15 1211.71 1214.74 1211.71 1213.9 1211.71 1213.9 1211.71 1213.9 1211.71 1213.9 1211.71 1213.48 1211.71 1213.48 1211.29 1213.48 1209.6 1213.48 1209.6 1213.48 1209.6 1213.48 1209.18 1213.48 1208.76 1213.9 1208.76ZM1148.33 1220.16C1149.16 1220.16 1149.16 1220.16 1149.16 1220.16 1149.58 1220.16 1149.58 1220.16 1149.58 1220.58 1150 1222.69 1150 1222.69 1150 1222.69 1150 1222.69 1149.58 1223.11 1149.16 1223.11 1148.75 1223.11 1148.75 1223.11 1148.75 1223.11 1148.33 1223.11 1147.91 1223.11 1147.91 1222.69 1147.91 1221 1147.91 1221 1147.91 1221 1147.91 1220.58 1148.33 1220.16 1148.33 1220.16ZM1153.76 1219.31C1154.18 1219.31 1154.18 1219.31 1154.18 1219.31 1154.59 1219.31 1155.01 1219.31 1155.01 1219.73 1155.01 1221.84 1155.01 1221.84 1155.01 1221.84 1155.01 1221.84 1154.59 1222.27 1154.59 1222.27 1153.76 1222.27 1153.76 1222.27 1153.76 1222.27 1153.34 1222.27 1153.34 1222.27 1153.34 1221.84 1152.92 1220.16 1152.92 1220.16 1152.92 1220.16 1152.92 1219.73 1153.34 1219.31 1153.76 1219.31ZM1159.19 1218.47C1160.02 1218.47 1160.02 1218.47 1160.02 1218.47 1160.02 1218.04 1160.44 1218.47 1160.44 1218.89 1160.44 1220.58 1160.44 1220.58 1160.44 1220.58 1160.44 1221 1160.44 1221.42 1160.02 1221.42 1159.61 1221.42 1159.61 1221.42 1159.61 1221.42 1159.19 1221.42 1158.77 1221.42 1158.77 1221 1158.77 1218.89 1158.77 1218.89 1158.77 1218.89 1158.77 1218.89 1158.77 1218.47 1159.19 1218.47ZM1164.62 1217.2C1165.45 1217.2 1165.45 1217.2 1165.45 1217.2 1165.87 1217.2 1165.87 1217.62 1165.87 1217.62 1166.29 1219.73 1166.29 1219.73 1166.29 1219.73 1166.29 1220.16 1165.87 1220.16 1165.45 1220.16 1165.04 1220.58 1165.04 1220.58 1165.04 1220.58 1164.62 1220.58 1164.2 1220.16 1164.2 1219.73 1164.2 1218.04 1164.2 1218.04 1164.2 1218.04 1164.2 1217.62 1164.62 1217.62 1164.62 1217.2ZM1169.63 1216.78C1170.46 1216.36 1170.46 1216.36 1170.46 1216.36 1170.46 1216.36 1170.88 1216.78 1170.88 1217.2 1170.88 1218.89 1170.88 1218.89 1170.88 1218.89 1170.88 1219.31 1170.88 1219.73 1170.46 1219.73 1169.63 1219.73 1169.63 1219.73 1169.63 1219.73 1169.63 1219.73 1169.21 1219.31 1169.21 1219.31 1169.21 1217.2 1169.21 1217.2 1169.21 1217.2 1169.21 1216.78 1169.21 1216.78 1169.63 1216.78ZM1218.08 1208.33C1218.49 1207.91 1218.49 1207.91 1218.49 1207.91 1218.91 1207.91 1219.33 1208.33 1219.33 1208.76 1219.33 1210.44 1219.33 1210.44 1219.33 1210.44 1219.33 1210.87 1219.33 1211.29 1218.91 1211.29 1218.08 1211.29 1218.08 1211.29 1218.08 1211.29 1217.66 1211.29 1217.66 1210.87 1217.66 1210.87 1217.24 1208.76 1217.24 1208.76 1217.24 1208.76 1217.24 1208.33 1217.66 1208.33 1218.08 1208.33ZM1222.25 1207.49C1223.09 1207.07 1223.09 1207.07 1223.09 1207.07 1223.51 1207.07 1223.51 1207.49 1223.51 1207.91 1223.92 1209.6 1223.92 1209.6 1223.92 1209.6 1223.92 1210.02 1223.51 1210.02 1223.09 1210.44 1222.67 1210.44 1222.67 1210.44 1222.67 1210.44 1222.25 1210.44 1221.84 1210.02 1221.84 1210.02 1221.84 1207.91 1221.84 1207.91 1221.84 1207.91 1221.84 1207.49 1221.84 1207.49 1222.25 1207.49ZM1226.43 1206.64C1227.26 1206.64 1227.26 1206.64 1227.26 1206.64 1227.68 1206.64 1227.68 1206.64 1228.1 1207.07 1228.1 1209.18 1228.1 1209.18 1228.1 1209.18 1228.1 1209.18 1227.68 1209.6 1227.26 1209.6 1226.85 1209.6 1226.85 1209.6 1226.85 1209.6 1226.43 1209.6 1226.01 1209.6 1226.01 1209.18 1226.01 1207.49 1226.01 1207.49 1226.01 1207.49 1226.01 1207.07 1226.43 1206.64 1226.43 1206.64ZM1230.61 1206.22C1231.44 1205.8 1231.44 1205.8 1231.44 1205.8 1231.86 1205.8 1231.86 1206.22 1231.86 1206.64 1232.28 1208.33 1232.28 1208.33 1232.28 1208.33 1232.28 1208.76 1231.86 1209.18 1231.44 1209.18 1231.02 1209.18 1231.02 1209.18 1231.02 1209.18 1230.61 1209.18 1230.19 1208.76 1230.19 1208.76 1230.19 1206.64 1230.19 1206.64 1230.19 1206.64 1230.19 1206.22 1230.61 1206.22 1230.61 1206.22ZM1235.2 1205.38C1235.62 1205.38 1235.62 1205.38 1235.62 1205.38 1236.04 1205.38 1236.45 1205.38 1236.45 1205.8 1236.45 1207.91 1236.45 1207.91 1236.45 1207.91 1236.45 1207.91 1236.04 1208.33 1236.04 1208.33 1235.2 1208.33 1235.2 1208.33 1235.2 1208.33 1234.78 1208.33 1234.36 1208.33 1234.36 1207.91 1234.36 1206.22 1234.36 1206.22 1234.36 1206.22 1234.36 1205.8 1234.78 1205.38 1235.2 1205.38ZM1238.96 1204.53C1239.79 1204.53 1239.79 1204.53 1239.79 1204.53 1240.21 1204.53 1240.21 1204.96 1240.21 1204.96 1240.63 1207.07 1240.63 1207.07 1240.63 1207.07 1240.63 1207.49 1240.21 1207.49 1239.79 1207.91 1239.38 1207.91 1239.38 1207.91 1239.38 1207.91 1238.96 1207.91 1238.54 1207.49 1238.54 1207.49 1238.54 1205.38 1238.54 1205.38 1238.54 1205.38 1238.54 1204.96 1238.96 1204.96 1238.96 1204.53ZM1243.14 1204.11C1243.97 1203.69 1243.97 1203.69 1243.97 1203.69 1244.39 1203.69 1244.39 1204.11 1244.81 1204.53 1244.81 1206.22 1244.81 1206.22 1244.81 1206.22 1244.81 1206.64 1244.39 1207.07 1243.97 1207.07 1243.55 1207.07 1243.55 1207.07 1243.55 1207.07 1243.14 1207.07 1242.72 1206.64 1242.72 1206.64 1242.72 1204.53 1242.72 1204.53 1242.72 1204.53 1242.72 1204.11 1243.14 1204.11 1243.14 1204.11ZM1247.31 1203.27C1248.15 1203.27 1248.15 1203.27 1248.15 1203.27 1248.56 1203.27 1248.56 1203.27 1248.56 1203.69 1248.98 1205.8 1248.98 1205.8 1248.98 1205.8 1248.98 1205.8 1248.56 1206.22 1248.15 1206.22 1247.73 1206.22 1247.73 1206.22 1247.73 1206.22 1247.31 1206.64 1246.89 1206.22 1246.89 1205.8 1246.89 1204.11 1246.89 1204.11 1246.89 1204.11 1246.89 1203.69 1246.89 1203.27 1247.31 1203.27Z" fill="#262626" fill-rule="evenodd"/></g></svg>