<svg width="213" height="213" xmlns="http://www.w3.org/2000/svg" xmlns:xlink="http://www.w3.org/1999/xlink" xml:space="preserve" overflow="hidden"><g transform="translate(-686 -1101)"><path d="M691 1207.5C691 1151.44 736.443 1106 792.5 1106 848.557 1106 894 1151.44 894 1207.5 894 1263.56 848.557 1309 792.5 1309 736.443 1309 691 1263.56 691 1207.5Z" stroke="#000000" stroke-width="10.3125" stroke-miterlimit="8" fill="#FFFFFF" fill-rule="evenodd"/><path d="M796.781 1164C793.841 1164.13 793.841 1164.13 793.841 1164.13 793.841 1164.13 784.084 1164.8 776.933 1165.59 769.782 1166.33 763.634 1167.46 766.174 1169.18 773.124 1174.04 818.166 1173.97 834.673 1179.55 837.547 1180.55 839.485 1181.55 841.69 1183.01 842.024 1183.21 843.361 1184.07 843.027 1184.8 842.96 1185 842.826 1185.2 842.492 1185.47 836.544 1189.79 803.531 1190.39 778.804 1201.48 758.021 1210.86 741.38 1227.14 726.344 1245.68 726.344 1245.68 722 1251 722 1251 807.875 1251 807.875 1251 807.875 1251 807.674 1245.75 806.672 1238.57 811.818 1232.32 824.716 1216.44 862.942 1212.05 877.51 1202.95 887 1196.97 882.79 1190.78 872.966 1185.6 842.158 1169.78 804.867 1172.04 784.017 1168.92 782.012 1168.65 778.002 1167.85 778.938 1167.46 778.938 1167.46 778.938 1167.46 778.938 1167.46 778.938 1167.39 779.138 1167.39 779.138 1167.39 779.874 1166.99 796.781 1164 796.781 1164Z" fill-rule="evenodd"/><path d="M797.675 1164C797.409 1164 797.409 1164 797.409 1164 797.409 1164.07 781.922 1166.69 779.994 1167.29 779.928 1167.29 779.462 1167.43 779.462 1167.43 778 1167.9 782.653 1168.84 784.647 1169.11 801.863 1171.8 830.445 1170.59 856.834 1179.39 862.949 1181.55 877.839 1186.92 879.899 1193.65 881.827 1199.97 870.062 1204.27 864.279 1206.29 844.803 1213.08 818.946 1217.38 808.045 1231.56 805.984 1234.12 804.123 1238.62 803.658 1243.33 803.591 1244.2 803.325 1247.43 803.325 1252 806.117 1252 806.117 1252 806.117 1252 805.984 1246.02 806.05 1250.18 806.05 1246.35 806.183 1216.03 856.768 1214.62 876.376 1202.59 891 1193.65 873.053 1184.5 856.967 1179.19 831.309 1170.72 802.461 1171.66 784.913 1169.04 782.786 1168.71 778.731 1167.9 779.795 1167.43 779.795 1167.43 780.127 1167.36 780.127 1167.36 781.855 1166.76 797.675 1164.07 797.675 1164Z" fill="#FFFFFF" fill-rule="evenodd"/><path d="M845.058 1184.44C844.658 1184.04 843.857 1183.57 843.99 1183.64 838.718 1180.31 832.311 1178.85 826.238 1177.78 809.421 1174.98 783.393 1174.25 771.915 1171.39 770.246 1170.92 766.576 1169.86 767.977 1168.73 767.977 1168.73 768.044 1168.66 768.044 1168.66 768.044 1168.66 768.044 1168.66 768.044 1168.66 768.511 1168.46 768.912 1167.66 776.653 1166.8 784.128 1165.93 795.473 1165 795.473 1165 795.473 1165 795.139 1165 795.139 1165 795.139 1165 785.663 1165.8 784.928 1165.87 778.655 1166.53 770.714 1167.13 767.977 1168.46 767.844 1168.53 767.644 1168.66 767.644 1168.66 765.909 1169.79 769.512 1170.92 771.448 1171.46 785.596 1175.05 820.699 1175.18 836.115 1180.38 838.051 1180.98 846.126 1184.3 844.925 1186.1 840.854 1190.96 808.887 1191.36 784.595 1201.28 759.235 1211.6 742.951 1230.37 726 1252 728.87 1252 728.87 1252 728.87 1252 745.087 1230.1 761.237 1211.86 785.195 1201.94 811.957 1190.83 853 1190.76 845.058 1184.44Z" fill="#FFFFFF" fill-rule="evenodd"/><path d="M777.323 1227C775.774 1229.28 771.839 1234.44 766.935 1246.91 765.709 1250.19 765 1252 765 1252 767.774 1252 767.774 1252 767.774 1252 769.129 1248.11 772.484 1237.12 779 1227.67L777.323 1227Z" fill="#FFFFFF" fill-rule="evenodd"/><path d="M827.141 1201C826.347 1201.18 812.86 1203.8 804 1207.21 804.793 1208 804.793 1208 804.793 1208 812.926 1204.9 822.314 1202.89 828 1201.73L827.141 1201Z" fill="#FFFFFF" fill-rule="evenodd"/><path d="M858.824 1191C858.514 1191.37 857.462 1192.1 856.967 1192.39 853.5 1194.59 847.31 1196.27 847 1196.34 848.052 1197 848.052 1197 848.052 1197 850.405 1196.41 858.329 1193.63 860 1191.44L858.824 1191Z" fill="#FFFFFF" fill-rule="evenodd"/><path d="M846.584 1180C846 1180.12 846 1180.12 846 1180.12 850.216 1181.3 856.703 1184.57 857.027 1184.94 858 1185 858 1185 858 1185 858 1185 858 1185 857.935 1185 857.935 1185 857.935 1185 857.935 1185 856.119 1183.7 848.919 1180.62 846.584 1180Z" fill="#FFFFFF" fill-rule="evenodd"/><path d="M822.131 1175C822 1175.07 822 1175.07 822 1175.07 828.754 1175.48 833.541 1175.97 833.738 1176 834 1175.93 834 1175.93 834 1175.93 832.754 1175.72 822.852 1175 822.131 1175Z" fill="#FFFFFF" fill-rule="evenodd"/><path d="M801.195 1173C801 1173.14 801 1173.14 801 1173.14 801 1173.14 810.87 1174 810.87 1174 811 1173.93 811 1173.93 811 1173.93 810.805 1173.86 801.39 1173 801.195 1173Z" fill="#FFFFFF" fill-rule="evenodd"/><path d="M783.36 1171C783 1171.13 783 1171.13 783 1171.13 783 1171.13 785.232 1171.4 791.712 1172 792 1171.87 792 1171.87 792 1171.87 786.528 1171.4 783.36 1171 783.36 1171Z" fill="#FFFFFF" fill-rule="evenodd"/><path d="M774.31 1169C774 1169.05 774 1169.05 774 1169.05 774.724 1169.58 776.534 1169.95 776.69 1170 777 1169.95 777 1169.95 777 1169.95 776.896 1169.89 774.983 1169.53 774.31 1169Z" fill="#FFFFFF" fill-rule="evenodd"/><path d="M780.872 1167C780.872 1167 776.085 1167.57 775 1167.93 775.702 1168 775.192 1167.86 778 1167.43 778.766 1167.36 780.872 1167.07 781 1167.07L780.872 1167Z" fill="#FFFFFF" fill-rule="evenodd"/><path d="M792.791 1165C792.233 1165.09 787.209 1165.91 787 1165.91 787.139 1166 787.139 1166 787.139 1166 787.907 1165.91 793 1165 793 1165L792.791 1165Z" fill="#FFFFFF" fill-rule="evenodd"/></g></svg>