<svg width="213" height="213" xmlns="http://www.w3.org/2000/svg" xmlns:xlink="http://www.w3.org/1999/xlink" xml:space="preserve" overflow="hidden"><g transform="translate(-1633 -1145)"><path d="M1638 1251.5C1638 1195.44 1683.44 1150 1739.5 1150 1795.56 1150 1841 1195.44 1841 1251.5 1841 1307.56 1795.56 1353 1739.5 1353 1683.44 1353 1638 1307.56 1638 1251.5Z" stroke="#000000" stroke-width="10.3125" stroke-miterlimit="8" fill="#FFFFFF" fill-rule="evenodd"/><path d="M1658.45 1205.41C1727.21 1210.17 1727.21 1210.17 1727.21 1210.17 1727.21 1209.64 1727.21 1209.64 1727.21 1209.64 1727.21 1209.11 1727.74 1208.58 1728.26 1208.05 1729.31 1212.81 1733.51 1216.51 1738.76 1216.51 1743.49 1216.51 1747.69 1213.34 1749.26 1208.58 1749.26 1209.11 1749.26 1209.64 1749.26 1209.64 1749.26 1210.17 1749.26 1210.17 1749.26 1210.17 1818.55 1205.41 1818.55 1205.41 1818.55 1205.41 1820.13 1206.47 1820.13 1206.47 1820.13 1206.47 1759.23 1213.87 1759.23 1213.87 1759.23 1213.87 1759.23 1223.91 1759.23 1223.91 1759.23 1223.91 1759.23 1223.91 1759.23 1223.91 1759.23 1223.91 1759.23 1222.85 1759.23 1222.85 1759.23 1222.85 1759.76 1222.85 1759.76 1222.85 1759.76 1222.85 1759.76 1222.85 1759.76 1222.85 1759.76 1222.85 1759.76 1222.32 1760.28 1221.79 1760.81 1221.79 1760.81 1221.79 1760.81 1221.79 1760.81 1221.79 1761.33 1221.79 1761.86 1222.32 1761.86 1222.85 1761.86 1224.97 1761.86 1224.97 1761.86 1224.97 1761.86 1225.49 1761.33 1226.02 1760.81 1226.02 1760.81 1226.02 1760.81 1226.02 1760.81 1226.02 1760.28 1226.02 1759.76 1225.49 1759.76 1224.97 1759.76 1224.97 1759.76 1224.97 1759.76 1224.97 1759.23 1224.97 1759.23 1224.97 1759.23 1224.97 1759.23 1223.91 1759.23 1223.91 1759.23 1223.91 1759.23 1223.91 1759.23 1223.91 1759.23 1223.91 1759.23 1224.44 1759.23 1224.44 1759.23 1224.44 1758.18 1224.44 1758.18 1224.44 1758.18 1224.44 1758.18 1223.91 1758.18 1223.91 1758.18 1223.91 1758.18 1223.91 1758.18 1223.91 1758.18 1223.91 1758.18 1224.97 1758.18 1224.97 1758.18 1224.97 1757.66 1224.97 1757.66 1224.97 1757.66 1224.97 1757.66 1224.97 1757.66 1224.97 1757.66 1224.97 1757.66 1225.49 1757.14 1226.02 1756.61 1226.02 1756.61 1226.02 1756.61 1226.02 1756.61 1226.02 1756.09 1226.02 1755.56 1225.49 1755.56 1224.97 1755.56 1222.85 1755.56 1222.85 1755.56 1222.85 1755.56 1222.32 1756.09 1221.79 1756.61 1221.79 1756.61 1221.79 1756.61 1221.79 1756.61 1221.79 1757.14 1221.79 1757.66 1222.32 1757.66 1222.85 1757.66 1222.85 1757.66 1222.85 1757.66 1222.85 1758.18 1222.85 1758.18 1222.85 1758.18 1222.85 1758.18 1223.91 1758.18 1223.91 1758.18 1223.91 1758.18 1223.91 1758.18 1223.91 1758.18 1223.91 1758.18 1213.87 1758.18 1213.87 1758.18 1213.87 1749.26 1214.92 1749.26 1214.92 1749.26 1214.92 1749.26 1215.98 1748.21 1216.51 1747.16 1216.51 1739.29 1216.51 1739.29 1216.51 1739.29 1216.51 1739.29 1222.32 1739.29 1222.32 1739.29 1222.32 1739.29 1222.32 1739.29 1222.32 1739.29 1222.32 1739.29 1221.79 1739.29 1221.79 1739.29 1221.79 1739.81 1221.79 1739.81 1221.79 1739.81 1221.79 1739.81 1221.27 1739.81 1221.27 1739.81 1221.27 1739.81 1221.27 1739.81 1220.74 1740.34 1220.74 1740.34 1220.74 1740.34 1220.74 1740.34 1220.74 1740.86 1220.74 1740.86 1221.27 1740.86 1221.27 1740.86 1222.85 1740.86 1222.85 1740.86 1222.85 1740.86 1223.38 1740.86 1223.91 1740.34 1223.91 1740.34 1223.91 1740.34 1223.91 1740.34 1223.91 1739.81 1223.91 1739.81 1223.38 1739.81 1222.85 1739.81 1222.85 1739.81 1222.85 1739.81 1222.85 1739.29 1222.85 1739.29 1222.85 1739.29 1222.85 1739.29 1222.32 1739.29 1222.32 1739.29 1222.32 1739.29 1222.32 1739.29 1222.32 1739.29 1222.32 1739.29 1222.85 1739.29 1222.85 1739.29 1222.85 1738.24 1222.85 1738.24 1222.85 1738.24 1222.85 1738.24 1222.32 1738.24 1222.32 1738.24 1222.32 1738.24 1222.32 1738.24 1222.32 1738.24 1222.32 1738.24 1222.85 1738.24 1222.85 1738.24 1222.85 1738.24 1222.85 1738.24 1222.85 1738.24 1222.85 1738.24 1222.85 1738.24 1222.85 1738.24 1222.85 1738.24 1223.38 1737.71 1223.91 1737.19 1223.91 1737.19 1223.91 1737.19 1223.91 1737.19 1223.91 1737.19 1223.91 1736.66 1223.38 1736.66 1222.85 1736.66 1221.27 1736.66 1221.27 1736.66 1221.27 1736.66 1221.27 1737.19 1220.74 1737.19 1220.74 1737.19 1220.74 1737.19 1220.74 1737.19 1220.74 1737.71 1220.74 1738.24 1221.27 1738.24 1221.27 1738.24 1221.79 1738.24 1221.79 1738.24 1221.79 1738.24 1221.79 1738.24 1221.79 1738.24 1221.79 1738.24 1222.32 1738.24 1222.32 1738.24 1222.32 1738.24 1222.32 1738.24 1222.32 1738.24 1222.32 1738.24 1216.51 1738.24 1216.51 1738.24 1216.51 1729.84 1216.51 1729.84 1216.51 1729.84 1216.51 1728.79 1216.51 1727.74 1215.98 1727.21 1214.92 1719.87 1213.87 1719.87 1213.87 1719.87 1213.87 1719.87 1223.91 1719.87 1223.91 1719.87 1223.91 1720.39 1223.91 1720.39 1223.91 1720.39 1223.91 1720.39 1222.85 1720.39 1222.85 1720.39 1222.85 1720.92 1222.85 1720.92 1222.85 1720.92 1222.85 1720.92 1222.85 1720.92 1222.85 1720.92 1222.85 1720.92 1222.32 1720.92 1221.79 1721.96 1221.79 1721.96 1221.79 1721.96 1221.79 1721.96 1221.79 1722.49 1221.79 1723.01 1222.32 1723.01 1222.85 1723.01 1224.97 1723.01 1224.97 1723.01 1224.97 1723.01 1225.49 1722.49 1226.02 1721.96 1226.02 1721.96 1226.02 1721.96 1226.02 1721.96 1226.02 1720.92 1226.02 1720.92 1225.49 1720.92 1224.97 1720.92 1224.97 1720.92 1224.97 1720.92 1224.97 1720.39 1224.97 1720.39 1224.97 1720.39 1224.97 1720.39 1223.91 1720.39 1223.91 1720.39 1223.91 1719.87 1223.91 1719.87 1223.91 1719.87 1223.91 1719.87 1224.44 1719.87 1224.44 1719.87 1224.44 1718.82 1224.44 1718.82 1224.44 1718.82 1224.44 1718.82 1223.91 1718.82 1223.91 1718.82 1223.91 1718.82 1223.91 1718.82 1223.91 1718.82 1223.91 1718.82 1224.97 1718.82 1224.97 1718.82 1224.97 1718.29 1224.97 1718.29 1224.97 1718.29 1224.97 1718.29 1224.97 1718.29 1224.97 1718.29 1224.97 1718.29 1225.49 1717.77 1226.02 1717.24 1226.02 1717.24 1226.02 1717.24 1226.02 1717.24 1226.02 1716.72 1226.02 1716.19 1225.49 1716.19 1224.97 1716.19 1222.85 1716.19 1222.85 1716.19 1222.85 1716.19 1222.32 1716.72 1221.79 1717.24 1221.79 1717.24 1221.79 1717.24 1221.79 1717.24 1221.79 1717.77 1221.79 1718.29 1222.32 1718.29 1222.85 1718.29 1222.85 1718.29 1222.85 1718.29 1222.85 1718.82 1222.85 1718.82 1222.85 1718.82 1222.85 1718.82 1223.91 1718.82 1223.91 1718.82 1223.91 1718.82 1223.91 1718.82 1223.91 1718.82 1223.91 1718.82 1213.87 1718.82 1213.87 1718.82 1213.87 1656.87 1206.47 1656.87 1206.47 1656.87 1206.47L1658.45 1205.41ZM1712.52 1233.95C1736.14 1233.95 1736.14 1233.95 1736.14 1233.95 1735.61 1239.76 1735.61 1239.76 1735.61 1239.76 1741.39 1239.76 1741.39 1239.76 1741.39 1239.76 1740.34 1233.95 1740.34 1233.95 1740.34 1233.95 1764.48 1233.95 1764.48 1233.95 1764.48 1233.95 1828 1308.47 1828 1308.47 1828 1308.47 1751.89 1309 1751.89 1309 1751.89 1309 1748.74 1289.97 1748.74 1289.97 1748.74 1289.97 1727.74 1289.97 1727.74 1289.97 1727.74 1289.97 1725.11 1309 1725.11 1309 1725.11 1309 1649 1308.47 1649 1308.47 1649 1308.47L1712.52 1233.95ZM1748.21 1284.16C1744.54 1260.91 1744.54 1260.91 1744.54 1260.91 1732.46 1260.91 1732.46 1260.91 1732.46 1260.91 1728.79 1284.16 1728.79 1284.16 1728.79 1284.16L1748.21 1284.16ZM1744.01 1256.68C1741.91 1241.88 1741.91 1241.88 1741.91 1241.88 1735.09 1241.88 1735.09 1241.88 1735.09 1241.88 1732.99 1256.68 1732.99 1256.68 1732.99 1256.68L1744.01 1256.68ZM1768.16 1212.81C1770.78 1212.81 1772.36 1214.4 1772.36 1217.04 1772.36 1219.15 1770.78 1221.27 1768.16 1221.27 1766.06 1221.27 1763.96 1219.15 1763.96 1217.04 1763.96 1214.4 1766.06 1212.81 1768.16 1212.81ZM1768.16 1213.87C1769.73 1213.87 1771.31 1215.45 1771.31 1217.04 1771.31 1218.62 1769.73 1219.68 1768.16 1219.68 1767.11 1219.68 1765.53 1218.62 1765.53 1217.04 1765.53 1215.45 1767.11 1213.87 1768.16 1213.87ZM1709.89 1212.81C1711.99 1212.81 1714.09 1214.4 1714.09 1217.04 1714.09 1219.15 1711.99 1221.27 1709.89 1221.27 1707.79 1221.27 1705.69 1219.15 1705.69 1217.04 1705.69 1214.4 1707.79 1212.81 1709.89 1212.81ZM1709.89 1214.4C1711.47 1214.4 1712.52 1215.45 1712.52 1217.04 1712.52 1218.62 1711.47 1219.68 1709.89 1219.68 1708.32 1219.68 1707.27 1218.62 1707.27 1217.04 1707.27 1215.45 1708.32 1214.4 1709.89 1214.4ZM1739.81 1194.84C1744.01 1195.37 1747.69 1198.01 1748.74 1202.24 1768.68 1200.65 1768.68 1200.65 1768.68 1200.65 1769.21 1201.18 1769.21 1201.18 1769.21 1201.18 1749.26 1203.3 1749.26 1203.3 1749.26 1203.3 1749.26 1203.83 1749.26 1204.88 1749.26 1205.41 1749.26 1211.22 1744.54 1215.98 1738.76 1215.98 1732.99 1215.98 1728.26 1211.22 1728.26 1205.41 1728.26 1204.88 1728.26 1203.83 1728.26 1203.3 1708.32 1201.18 1708.32 1201.18 1708.32 1201.18 1709.37 1200.65 1709.37 1200.65 1709.37 1200.65 1728.79 1202.24 1728.79 1202.24 1728.79 1202.24 1729.84 1198.01 1733.51 1195.37 1737.71 1194.84 1738.76 1170 1738.76 1170 1738.76 1170L1739.81 1194.84ZM1732.46 1200.13C1744.54 1200.13 1744.54 1200.13 1744.54 1200.13 1746.64 1203.3 1746.64 1203.3 1746.64 1203.3 1730.89 1203.3 1730.89 1203.3 1730.89 1203.3L1732.46 1200.13Z" fill-rule="evenodd"/></g></svg>