<svg width="213" height="213" xmlns="http://www.w3.org/2000/svg" xmlns:xlink="http://www.w3.org/1999/xlink" xml:space="preserve" overflow="hidden"><g transform="translate(-1499 -240)"><path d="M1504 346.5C1504 290.443 1549.44 245 1605.5 245 1661.56 245 1707 290.443 1707 346.5 1707 402.557 1661.56 448 1605.5 448 1549.44 448 1504 402.557 1504 346.5Z" stroke="#000000" stroke-width="10.3125" stroke-miterlimit="8" fill="#FFFFFF" fill-rule="evenodd"/><path d="M1661.64 353.4C1660.27 354.8 1658.91 354.8 1656.18 354.8 1653.45 354.8 1650.73 354.8 1649.36 352 1648 350.6 1646.64 346.4 1646.64 342.2 1646.64 336.6 1648 333.8 1649.36 332.4 1650.73 329.6 1653.45 328.2 1656.18 328.2 1657.55 328.2 1658.91 328.2 1660.27 329.6 1661.64 329.6 1663 331 1663 331 1664.36 332.4 1664.36 333.8 1664.36 335.2 1678 332.4 1678 332.4 1678 332.4 1675.27 326.8 1673.91 322.6 1669.82 321.2 1667.09 318.4 1661.64 317 1656.18 317 1648 317 1642.55 318.4 1638.45 324 1634.36 328.2 1633 333.8 1633 342.2 1633 347.8 1633 352 1635.73 356.2 1638.45 360.4 1641.18 363.2 1643.91 364.6 1648 366 1652.09 366 1656.18 366 1660.27 366 1664.36 366 1667.09 364.6 1669.82 363.2 1672.55 361.8 1673.91 359 1675.27 356.2 1676.64 353.4 1678 350.6 1665.73 346.4 1665.73 346.4 1665.73 346.4 1664.36 349.2 1663 352 1661.64 353.4Z" fill-rule="evenodd"/><path d="M1616 347.8C1616 353.4 1616 353.4 1616 353.4 1614.6 353.4 1613.2 354.8 1611.8 354.8 1610.4 356.2 1607.6 356.2 1606.2 356.2 1603.4 356.2 1600.6 354.8 1597.8 353.4 1596.4 350.6 1595 346.4 1595 342.2 1595 336.6 1596.4 333.8 1597.8 331 1600.6 328.2 1603.4 326.8 1606.2 326.8 1607.6 326.8 1610.4 328.2 1611.8 328.2 1613.2 329.6 1614.6 331 1614.6 332.4 1628.6 331 1628.6 331 1628.6 331 1628.6 326.8 1627.2 325.4 1624.4 322.6 1623 321.2 1621.6 319.8 1618.8 318.4 1616 317 1611.8 317 1606.2 317 1600.6 317 1596.4 317 1593.6 319.8 1589.4 321.2 1586.6 324 1583.8 328.2 1581 332.4 1581 336.6 1581 342.2 1581 346.4 1581 350.6 1583.8 354.8 1585.2 359 1588 361.8 1592.2 363.2 1595 366 1600.6 366 1606.2 366 1610.4 366 1614.6 366 1617.4 364.6 1621.6 364.6 1625.8 361.8 1630 359 1630 338 1630 338 1630 338 1606.2 338 1606.2 338 1606.2 338 1606.2 347.8 1606.2 347.8 1606.2 347.8 1616 347.8 1616 347.8 1616 347.8Z" fill-rule="evenodd"/><path d="M1535 366C1557.71 366 1557.71 366 1557.71 366 1560.55 366 1563.39 366 1566.23 364.588 1569.06 363.177 1570.48 363.177 1573.32 360.353 1574.74 358.941 1576.16 356.118 1577.58 353.294 1579 350.471 1579 346.235 1579 342 1579 337.765 1579 334.941 1579 332.118 1577.58 329.294 1576.16 326.471 1574.74 323.647 1573.32 322.235 1570.48 320.824 1567.65 319.412 1564.81 318 1561.97 318 1557.71 318 1535 318 1535 318 1535 318 1535 366 1535 366 1535 366ZM1553.45 327.882C1557.71 327.882 1560.55 329.294 1561.97 330.706 1563.39 333.529 1564.81 336.353 1564.81 342 1564.81 346.235 1564.81 349.059 1563.39 350.471 1561.97 351.882 1561.97 353.294 1560.55 353.294 1559.13 354.706 1556.29 354.706 1553.45 354.706 1549.19 354.706 1549.19 354.706 1549.19 354.706 1549.19 327.882 1549.19 327.882 1549.19 327.882 1553.45 327.882 1553.45 327.882 1553.45 327.882Z" fill-rule="evenodd"/></g></svg>