<svg width="213" height="213" xmlns="http://www.w3.org/2000/svg" xmlns:xlink="http://www.w3.org/1999/xlink" xml:space="preserve" overflow="hidden"><g transform="translate(-1888 -680)"><path d="M1893 786.5C1893 730.443 1938.44 685 1994.5 685 2050.56 685 2096 730.443 2096 786.5 2096 842.557 2050.56 888 1994.5 888 1938.44 888 1893 842.557 1893 786.5Z" stroke="#000000" stroke-width="10.3125" stroke-miterlimit="8" fill="#FFFFFF" fill-rule="evenodd"/><path d="M2020 815 2035.52 815 2035.52 796.714 2052.2 796.714 2052.2 815 2066 815 2066 767 2052.2 767 2052.2 784.143 2035.52 784.143 2035.52 767 2020 767 2020 815 2020 815Z" fill-rule="evenodd"/><path d="M1972.8 804.667C1975.6 808.917 1978.4 811.75 1981.2 813.167 1985.4 814.583 1989.6 816 1995.2 816 2000.8 816 2005 814.583 2007.8 813.167 2012 810.333 2014.8 807.5 2016.2 804.667 2019 800.417 2019 796.167 2019 790.5 2019 782 2017.6 776.333 2013.4 772.083 2007.8 767.833 2002.2 765 1993.8 765 1986.8 765 1979.8 767.833 1975.6 772.083 1971.4 776.333 1970 783.417 1970 790.5 1970 796.167 1970 801.833 1972.8 804.667ZM1986.8 780.583C1988.2 777.75 1991 777.75 1993.8 777.75 1998 777.75 1999.4 777.75 2002.2 780.583 2003.6 782 2005 786.25 2005 790.5 2005 796.167 2003.6 799 2002.2 801.833 1999.4 803.25 1998 804.667 1993.8 804.667 1991 804.667 1988.2 803.25 1986.8 801.833 1985.4 799 1984 796.167 1984 790.5 1984 786.25 1985.4 782 1986.8 780.583Z" fill-rule="evenodd"/><path d="M1924 815C1946.19 815 1946.19 815 1946.19 815 1947.58 815 1951.74 815 1954.52 813.588 1957.29 813.588 1958.68 812.176 1961.45 810.765 1962.84 807.941 1964.23 806.529 1965.61 803.706 1967 800.882 1967 796.647 1967 791 1967 788.176 1967 785.353 1967 781.118 1965.61 778.294 1964.23 776.882 1962.84 774.059 1961.45 771.235 1958.68 769.823 1955.9 768.412 1953.13 767 1950.35 767 1946.19 767 1924 767 1924 767 1924 767 1924 815 1924 815 1924 815ZM1942.03 778.294C1946.19 778.294 1948.97 779.706 1950.35 781.118 1951.74 782.529 1953.13 786.765 1953.13 791 1953.13 795.235 1953.13 798.059 1951.74 799.471 1950.35 802.294 1950.35 802.294 1948.97 803.706 1947.58 803.706 1944.81 805.118 1942.03 805.118 1937.87 805.118 1937.87 805.118 1937.87 805.118 1937.87 778.294 1937.87 778.294 1937.87 778.294 1942.03 778.294 1942.03 778.294 1942.03 778.294Z" fill-rule="evenodd"/></g></svg>