<svg width="213" height="213" xmlns="http://www.w3.org/2000/svg" xmlns:xlink="http://www.w3.org/1999/xlink" xml:space="preserve" overflow="hidden"><g transform="translate(-806 -235)"><path d="M811 341.5C811 285.443 856.443 240 912.5 240 968.557 240 1014 285.443 1014 341.5 1014 397.557 968.557 443 912.5 443 856.443 443 811 397.557 811 341.5Z" stroke="#000000" stroke-width="10.3125" stroke-miterlimit="8" fill="#FFFFFF" fill-rule="evenodd"/><path d="M918.152 292.476C918.152 269 918.152 269 918.152 269 905.848 269 905.848 269 905.848 269 905.848 292.476 905.848 292.476 905.848 292.476 918.152 292.476 918.152 292.476 918.152 292.476ZM931.823 303.524C931.823 295.238 931.823 295.238 931.823 295.238 890.81 295.238 890.81 295.238 890.81 295.238 890.81 303.524 890.81 303.524 890.81 303.524 931.823 303.524 931.823 303.524 931.823 303.524ZM946.861 324.238C944.127 306.286 944.127 306.286 944.127 306.286 879.873 306.286 879.873 306.286 879.873 306.286 877.139 324.238 877.139 324.238 877.139 324.238 911.316 311.81 911.316 311.81 911.316 311.81 946.861 324.238 946.861 324.238 946.861 324.238ZM911.316 315.952C862.101 333.905 862.101 333.905 862.101 333.905 863.468 335.286 864.835 338.048 866.203 339.429 867.57 340.81 867.57 342.19 868.937 343.571 911.316 327 911.316 327 911.316 327 955.063 343.571 955.063 343.571 955.063 343.571 956.43 340.81 957.797 339.429 957.797 338.048 959.164 336.667 960.532 335.286 960.532 333.905 911.316 315.952 911.316 315.952 911.316 315.952ZM911.316 331.143C870.304 346.333 870.304 346.333 870.304 346.333 871.671 353.238 874.405 357.381 875.772 361.524 877.139 365.667 877.139 368.429 878.506 371.19 878.506 375.333 879.873 379.476 879.873 383.619 881.24 387.762 881.24 390.524 881.24 394.667 882.608 394.667 883.975 394.667 885.342 394.667 886.709 394.667 889.443 396.048 892.177 397.428 894.911 398.809 896.278 400.19 897.646 400.19 899.013 400.19 899.013 400.19 900.38 398.809 901.747 398.809 903.114 397.428 904.481 397.428 905.848 397.428 907.215 396.048 908.582 396.048 908.582 394.667 909.949 394.667 911.316 394.667 912.684 394.667 914.051 394.667 915.418 396.048 916.785 396.048 918.152 396.048 919.519 397.428 920.886 397.428 922.253 398.809 923.62 398.809 924.987 398.809 924.987 400.19 924.987 400.19 927.721 400.19 929.089 398.809 931.823 397.428 933.19 396.048 935.924 394.667 935.924 394.667 937.291 394.667 938.658 394.667 941.392 394.667 942.759 387.762 944.127 382.238 944.127 379.476 945.494 375.333 945.494 372.571 945.494 371.19 946.861 367.048 948.228 362.905 949.595 358.762 950.962 354.619 952.329 350.476 953.696 346.333 911.316 331.143 911.316 331.143 911.316 331.143ZM966 396.048C964.633 396.048 964.633 396.048 963.266 396.048 963.266 396.048 961.899 397.428 961.899 397.428 959.164 398.809 959.164 398.809 959.164 398.809 956.43 400.19 955.063 401.571 953.696 401.571 952.329 401.571 949.595 401.571 945.494 398.809 942.759 397.428 940.025 396.048 938.658 396.048 937.291 396.048 934.557 397.428 931.823 398.809 930.456 400.19 927.721 401.571 926.354 401.571 923.62 401.571 922.253 401.571 918.152 398.809 915.418 397.428 914.051 396.048 911.316 396.048 909.949 396.048 907.215 397.428 904.481 398.809 901.747 400.19 900.38 401.571 899.013 401.571 896.278 401.571 894.911 401.571 890.81 398.809 888.076 397.428 885.342 396.048 883.975 396.048 883.975 396.048 882.608 397.428 881.24 397.428 879.873 397.428 878.506 398.809 877.139 398.809 873.038 401.571 871.671 401.571 870.304 401.571 870.304 401.571 868.937 401.571 867.57 400.19 867.57 400.19 866.203 398.809 864.835 398.809 862.101 397.428 859.367 396.048 858 396.048 858 396.048 858 396.048 858 396.048 858 401.571 858 401.571 858 401.571 859.367 401.571 860.734 401.571 862.101 402.952 864.835 405.714 867.57 407.095 870.304 407.095 870.304 407.095 873.038 405.714 877.139 404.333 879.873 402.952 882.608 401.571 883.975 401.571 885.342 401.571 888.076 402.952 890.81 404.333 894.911 405.714 896.278 407.095 897.646 407.095 900.38 407.095 901.747 405.714 904.481 404.333 907.215 401.571 909.949 401.571 911.316 401.571 912.684 401.571 914.051 401.571 915.418 402.952 916.785 402.952 918.152 404.333 919.519 404.333 920.886 405.714 920.886 405.714 922.253 405.714 923.62 407.095 924.987 407.095 926.354 407.095 927.721 407.095 929.089 405.714 931.823 404.333 934.557 402.952 935.924 401.571 938.658 401.571 940.025 401.571 941.392 401.571 942.759 402.952 944.127 402.952 945.494 402.952 946.861 404.333 948.228 404.333 949.595 405.714 950.962 405.714 950.962 407.095 952.329 407.095 952.329 407.095 957.797 405.714 960.532 404.333 960.532 402.952 963.266 401.571 964.633 401.571 964.633 401.571 966 396.048 966 396.048 966 396.048ZM966 402.952C964.633 402.952 963.266 404.333 961.899 404.333 959.164 407.095 959.164 407.095 959.164 407.095 956.43 408.476 955.063 408.476 953.696 408.476 952.329 409.857 949.595 408.476 946.861 407.095 944.127 404.333 941.392 404.333 938.658 404.333 937.291 404.333 934.557 404.333 931.823 405.714 930.456 408.476 927.721 408.476 926.354 408.476 923.62 408.476 922.253 408.476 919.519 405.714 916.785 404.333 914.051 404.333 911.316 404.333 909.949 404.333 907.215 404.333 904.481 405.714 903.114 408.476 900.38 408.476 899.013 408.476 897.646 409.857 894.911 408.476 892.177 407.095 888.076 404.333 885.342 404.333 883.975 404.333 882.608 404.333 879.873 404.333 877.139 407.095 873.038 408.476 871.671 408.476 870.304 408.476 870.304 408.476 868.937 408.476 867.57 408.476 867.57 407.095 866.203 407.095 864.835 405.714 862.101 404.333 859.367 402.952 859.367 402.952 858 402.952 858 402.952 858 402.952 858 408.476 858 408.476 858 408.476 860.734 408.476 862.101 408.476 862.101 409.857 864.835 412.619 867.57 414 870.304 414 871.671 414 873.038 412.619 877.139 411.238 879.873 409.857 882.608 408.476 883.975 408.476 885.342 408.476 888.076 409.857 890.81 411.238 894.911 412.619 896.278 414 899.013 414 900.38 414 901.747 412.619 904.481 411.238 907.215 409.857 909.949 408.476 911.316 408.476 912.684 408.476 914.051 408.476 915.418 409.857 916.785 409.857 918.152 411.238 919.519 411.238 920.886 412.619 920.886 412.619 922.253 412.619 923.62 414 924.987 414 926.354 414 927.721 414 929.089 412.619 931.823 411.238 934.557 409.857 937.291 408.476 938.658 408.476 940.025 408.476 942.759 409.857 946.861 411.238 949.595 414 952.329 414 953.696 414 957.797 412.619 960.532 411.238 961.899 409.857 963.266 408.476 964.633 408.476 966 408.476 966 402.952 966 402.952 966 402.952ZM923.62 354.619C922.253 353.238 920.886 351.857 922.253 349.095 922.253 344.952 923.62 343.571 924.987 344.952 927.721 344.952 929.089 346.333 927.721 350.476 927.721 353.238 926.354 354.619 923.62 354.619ZM899.013 354.619C897.646 354.619 896.278 353.238 894.911 350.476 894.911 346.333 896.278 344.952 897.646 344.952 900.38 343.571 901.747 344.952 901.747 349.095 901.747 351.857 901.747 353.238 899.013 354.619Z" fill-rule="evenodd"/></g></svg>