<svg width="213" height="213" xmlns="http://www.w3.org/2000/svg" xmlns:xlink="http://www.w3.org/1999/xlink" xml:space="preserve" overflow="hidden"><g transform="translate(-2017 -1158)"><path d="M2022 1264.5C2022 1208.44 2067.44 1163 2123.5 1163 2179.56 1163 2225 1208.44 2225 1264.5 2225 1320.56 2179.56 1366 2123.5 1366 2067.44 1366 2022 1320.56 2022 1264.5Z" stroke="#000000" stroke-width="10.3125" stroke-miterlimit="8" fill="#FFFFFF" fill-rule="evenodd"/><path d="M2138.28 1213 2119.72 1213 2034 1301 2224 1301 2138.28 1213 2138.28 1213Z" fill-rule="evenodd"/><path d="M2121 1213 2120.31 1213 2040 1301 2044.93 1301 2121 1213 2121 1213Z" fill="#FFFFFF" fill-rule="evenodd"/><path d="M2137.69 1213 2137 1213 2213.07 1301 2218 1301 2137.69 1213 2137.69 1213Z" fill="#FFFFFF" fill-rule="evenodd"/><path d="M2130.69 1248.57 2127.31 1248.57 2127 1261 2131 1261 2130.69 1248.57 2130.69 1248.57ZM2130.23 1235.18 2127.77 1235.18 2127.77 1240.78 2130.23 1240.78 2130.23 1235.18 2130.23 1235.18ZM2129.92 1228.07 2128.08 1228.07 2128.08 1230.94 2129.92 1230.94 2129.92 1228.07 2129.92 1228.07ZM2129.62 1223.43 2128.38 1223.43 2128.08 1225.48 2129.92 1225.48 2129.62 1223.43 2129.62 1223.43ZM2129.62 1220.15 2128.38 1220.15 2128.38 1221.79 2129.62 1221.79 2129.62 1220.15 2129.62 1220.15ZM2129.62 1217.96 2128.38 1217.96 2128.38 1219.19 2129.62 1219.19 2129.62 1217.96 2129.62 1217.96ZM2129.62 1216.32 2128.38 1216.32 2128.38 1217.28 2129.62 1217.28 2129.62 1216.32 2129.62 1216.32ZM2129.62 1214.96 2128.38 1214.96 2128.38 1215.64 2129.62 1215.64 2129.62 1214.96 2129.62 1214.96ZM2129.62 1214 2128.38 1214 2128.38 1214.41 2129.62 1214.41 2129.62 1214 2129.62 1214Z" fill="#FFFFFF" fill-rule="evenodd"/><path d="M2131.31 1282 2127.69 1282 2127 1301 2132 1301 2131.31 1282 2131.31 1282Z" fill="#FFFFFF" fill-rule="evenodd"/></g></svg>