<svg width="213" height="213" xmlns="http://www.w3.org/2000/svg" xmlns:xlink="http://www.w3.org/1999/xlink" xml:space="preserve" overflow="hidden"><g transform="translate(-1099 -680)"><path d="M1104 786.5C1104 730.443 1149.44 685 1205.5 685 1261.56 685 1307 730.443 1307 786.5 1307 842.557 1261.56 888 1205.5 888 1149.44 888 1104 842.557 1104 786.5Z" stroke="#000000" stroke-width="10.3125" stroke-miterlimit="8" fill="#FFFFFF" fill-rule="evenodd"/><path d="M1242.97 841.038C1235.94 841.038 1235.94 841.038 1235.94 841.038 1235.94 818.76 1235.94 818.76 1235.94 818.76 1250 818.76 1250 818.76 1250 818.76 1250 789.519 1250 789.519 1250 789.519 1235.94 789.519 1235.94 789.519 1235.94 789.519 1235.94 781.165 1235.94 781.165 1235.94 781.165 1242.97 781.165 1242.97 781.165 1242.97 781.165 1242.97 760.279 1242.97 760.279 1242.97 760.279 1235.94 760.279 1235.94 760.279 1235.94 760.279 1235.94 751.924 1233.12 746.354 1226.09 742.177 1220.47 739.392 1214.84 738 1206.41 738 1197.97 738 1190.94 739.392 1185.31 742.177 1179.69 746.354 1175.47 751.924 1175.47 760.279 1168.44 760.279 1168.44 760.279 1168.44 760.279 1168.44 781.165 1168.44 781.165 1168.44 781.165 1175.47 781.165 1175.47 781.165 1175.47 781.165 1175.47 789.519 1175.47 789.519 1175.47 789.519 1160 789.519 1160 789.519 1160 789.519 1160 818.76 1160 818.76 1160 818.76 1175.47 818.76 1175.47 818.76 1175.47 818.76 1175.47 841.038 1175.47 841.038 1175.47 841.038 1168.44 841.038 1168.44 841.038 1168.44 841.038 1168.44 848 1168.44 848 1168.44 848 1242.97 848 1242.97 848 1242.97 848 1242.97 841.038 1242.97 841.038 1242.97 841.038Z" fill-rule="evenodd"/></g></svg>