<svg width="213" height="213" xmlns="http://www.w3.org/2000/svg" xmlns:xlink="http://www.w3.org/1999/xlink" xml:space="preserve" overflow="hidden"><g transform="translate(-1160 -229)"><path d="M1165 335.5C1165 279.443 1210.44 234 1266.5 234 1322.56 234 1368 279.443 1368 335.5 1368 391.557 1322.56 437 1266.5 437 1210.44 437 1165 391.557 1165 335.5Z" stroke="#000000" stroke-width="10.3125" stroke-miterlimit="8" fill="#FFFFFF" fill-rule="evenodd"/><path d="M1267.98 356.714C1272.11 359.543 1274.87 362.371 1279 366.614 1281.75 369.443 1285.89 372.271 1288.64 375.1 1296.9 382.171 1303.79 385 1310.67 385 1314.8 385 1314.8 385 1314.8 385 1320.31 385 1329.95 377.929 1343.72 366.614 1350.61 360.957 1357.49 355.3 1363 349.643 1363 349.643 1356.11 352.471 1343.72 359.543 1336.84 363.786 1331.33 366.614 1325.82 369.443 1320.31 370.857 1317.56 372.271 1314.8 372.271 1313.43 373.686 1312.05 373.686 1310.67 373.686 1303.79 373.686 1296.9 369.443 1288.64 362.371 1285.89 359.543 1281.75 356.714 1279 353.886 1274.87 349.643 1272.11 346.814 1267.98 343.986 1259.72 336.914 1251.46 334.086 1243.2 334.086 1239.07 334.086 1229.43 338.329 1217.03 349.643 1214.28 352.471 1210.15 356.714 1206.02 359.543 1201.89 362.371 1199.13 366.614 1195 369.443 1200.51 365.2 1207.39 360.957 1217.03 355.3 1229.43 349.643 1237.69 345.4 1243.2 345.4 1251.46 345.4 1259.72 349.643 1267.98 356.714 1267.98 356.714 1267.98 356.714 1267.98 356.714ZM1267.98 308.629C1272.11 311.457 1274.87 314.286 1279 318.529 1281.75 321.357 1285.89 324.186 1288.64 327.014 1296.9 334.086 1303.79 338.329 1310.67 338.329 1310.67 338.329 1312.05 338.329 1312.05 338.329 1313.43 338.329 1313.43 338.329 1314.8 336.914 1320.31 336.914 1329.95 329.843 1343.72 318.529 1363 301.557 1363 301.557 1363 301.557 1343.72 311.457 1343.72 311.457 1343.72 311.457 1336.84 315.7 1331.33 318.529 1325.82 321.357 1320.31 322.771 1317.56 324.186 1314.8 324.186 1313.43 325.6 1312.05 325.6 1310.67 325.6 1303.79 325.6 1296.9 321.357 1288.64 314.286 1285.89 311.457 1281.75 308.629 1279 305.8 1274.87 302.971 1272.11 298.729 1267.98 295.9 1259.72 288.829 1251.46 286 1243.2 286 1239.07 286 1229.43 290.243 1217.03 301.557 1214.28 304.386 1210.15 308.629 1206.02 311.457 1201.89 315.7 1199.13 318.529 1195 321.357 1200.51 317.114 1207.39 312.871 1217.03 307.214 1229.43 301.557 1237.69 298.729 1243.2 298.729 1251.46 298.729 1259.72 301.557 1267.98 308.629 1267.98 308.629 1267.98 308.629 1267.98 308.629Z" fill-rule="evenodd"/></g></svg>