<svg width="213" height="213" xmlns="http://www.w3.org/2000/svg" xmlns:xlink="http://www.w3.org/1999/xlink" xml:space="preserve" overflow="hidden"><g transform="translate(-2812 -697)"><path d="M2817 803.5C2817 747.443 2862.44 702 2918.5 702 2974.56 702 3020 747.443 3020 803.5 3020 859.557 2974.56 905 2918.5 905 2862.44 905 2817 859.557 2817 803.5Z" stroke="#000000" stroke-width="10.3125" stroke-miterlimit="8" fill="#FFFFFF" fill-rule="evenodd"/><path d="M2973 850.189C2963.23 848.237 2956.06 845.633 2952.8 843.03 2948.89 840.426 2946.94 835.87 2946.94 830.663 2946.94 775.337 2946.94 775.337 2946.94 775.337 2946.94 770.13 2948.89 766.876 2952.8 763.621 2956.71 761.018 2963.23 759.065 2973 757.112 2973 749.302 2973 749.302 2973 749.302 2958.01 752.556 2947.59 755.811 2941.07 759.716 2935.21 764.272 2932.6 768.828 2932.6 775.337 2932.6 831.314 2932.6 831.314 2932.6 831.314 2932.6 837.823 2935.21 843.03 2941.07 846.935 2946.94 850.84 2957.36 854.095 2973 858 2973 850.189 2973 850.189 2973 850.189ZM2911.75 774.036C2911.75 770.781 2911.1 768.177 2909.79 765.574 2908.49 762.97 2905.88 761.018 2902.63 759.065 2899.37 757.112 2895.46 755.16 2890.25 753.207 2885.68 751.254 2879.17 749.953 2872 748 2872 755.811 2872 755.811 2872 755.811 2881.12 757.763 2887.64 760.367 2891.55 762.97 2894.81 765.574 2896.76 769.479 2896.76 774.686 2896.76 829.361 2896.76 829.361 2896.76 829.361 2896.76 832.615 2896.76 834.568 2895.46 836.521 2894.81 838.473 2893.5 840.426 2891.55 841.728 2889.59 843.03 2886.99 844.331 2883.73 845.633 2880.47 846.935 2876.56 848.237 2872 848.888 2872 856.698 2872 856.698 2872 856.698 2886.99 853.444 2897.41 849.538 2902.63 845.633 2908.49 841.728 2911.75 837.172 2911.75 830.663 2911.75 774.036 2911.75 774.036 2911.75 774.036Z" fill-rule="evenodd"/></g></svg>