<svg width="213" height="213" xmlns="http://www.w3.org/2000/svg" xmlns:xlink="http://www.w3.org/1999/xlink" xml:space="preserve" overflow="hidden"><g transform="translate(-1850 -226)"><path d="M1855 332.5C1855 276.443 1900.44 231 1956.5 231 2012.56 231 2058 276.443 2058 332.5 2058 388.557 2012.56 434 1956.5 434 1900.44 434 1855 388.557 1855 332.5Z" stroke="#000000" stroke-width="10.3125" stroke-miterlimit="8" fill="#FFFFFF" fill-rule="evenodd"/><path d="M1952.65 267C1962.98 267 1962.98 267 1962.98 267 1965.93 269.978 1965.93 269.978 1965.93 269.978 1989.54 271.467 1989.54 271.467 1989.54 271.467 1989.54 277.424 1989.54 277.424 1989.54 277.424 1965.93 280.402 1965.93 280.402 1965.93 280.402 1964.45 280.402 1964.45 280.402 1964.45 281.891 1964.45 283.38 1964.45 283.38 1965.93 283.38 1977.73 286.359 1977.73 286.359 1977.73 286.359 1980.68 314.652 1980.68 314.652 1980.68 314.652 1980.68 313.163 1982.16 313.163 1986.59 311.674 1989.54 310.185 1992.49 310.185 1995.44 310.185 1995.44 341.457 1995.44 341.457 1995.44 341.457 1992.49 341.457 1989.54 341.457 1986.59 341.457 1982.16 339.967 1980.68 338.478 1980.68 336.989 1980.68 342.946 1973.3 344.435 1958.55 344.435 1943.79 344.435 1936.41 342.946 1936.41 336.989 1929.04 336.989 1924.61 336.989 1923.13 338.478 1921.66 338.478 1921.66 342.946 1921.66 347.413 1901 347.413 1901 347.413 1901 347.413 1901 339.967 1902.48 332.522 1905.43 325.076 1908.38 319.12 1918.71 314.652 1936.41 314.652 1937.89 286.359 1937.89 286.359 1937.89 286.359 1951.17 283.38 1951.17 283.38 1951.17 283.38 1951.17 283.38 1952.65 283.38 1952.65 281.891 1952.65 280.402 1951.17 280.402 1951.17 280.402 1926.09 277.424 1926.09 277.424 1926.09 277.424 1926.09 271.467 1926.09 271.467 1926.09 271.467 1951.17 269.978 1951.17 269.978 1951.17 269.978L1952.65 267ZM1921.66 350.391C1921.66 353.37 1921.66 353.37 1921.66 353.37 1901 353.37 1901 353.37 1901 353.37 1901 350.391 1901 350.391 1901 350.391L1921.66 350.391ZM1901 356.348C1921.66 356.348 1921.66 356.348 1921.66 356.348 1921.66 357.837 1921.66 357.837 1921.66 357.837 1901 357.837 1901 357.837 1901 357.837L1901 356.348ZM1921.66 360.815C1921.66 363.793 1921.66 363.793 1921.66 363.793 1901 363.793 1901 363.793 1901 363.793 1901 360.815 1901 360.815 1901 360.815L1921.66 360.815ZM1921.66 366.772C1921.66 369.75 1921.66 369.75 1921.66 369.75 1901 369.75 1901 369.75 1901 369.75 1901 366.772 1901 366.772 1901 366.772L1921.66 366.772ZM1911.33 374.217C1915.76 383.152 1918.71 389.109 1917.23 395.065 1917.23 401.022 1914.28 404 1911.33 404 1906.9 404 1905.43 401.022 1903.95 395.065 1903.95 389.109 1906.9 383.152 1911.33 374.217ZM2022 314.652C2022 335.5 2022 335.5 2022 335.5 1999.87 335.5 1999.87 335.5 1999.87 335.5 1999.87 314.652 1999.87 314.652 1999.87 314.652L2022 314.652Z" fill-rule="evenodd"/></g></svg>