<svg width="213" height="213" xmlns="http://www.w3.org/2000/svg" xmlns:xlink="http://www.w3.org/1999/xlink" xml:space="preserve" overflow="hidden"><g transform="translate(-2527 -689)"><path d="M2532 795.5C2532 739.443 2577.44 694 2633.5 694 2689.56 694 2735 739.443 2735 795.5 2735 851.557 2689.56 897 2633.5 897 2577.44 897 2532 851.557 2532 795.5Z" stroke="#000000" stroke-width="10.3125" stroke-miterlimit="8" fill="#FFFFFF" fill-rule="evenodd"/><rect x="2576" y="752" width="115" height="37.9998"/><rect x="2585" y="838" width="23" height="11"/><rect x="2591" y="788" width="13" height="50.0002"/><rect x="2656" y="837" width="23.9998" height="11"/><path d="M2658 786 2677.04 786 2688 764.808 2686.27 757 2671.85 757 2658 786Z" fill-rule="evenodd"/><rect x="2663" y="788" width="11" height="50.0002"/><path d="M2584 781.52 2584 786 2599.49 786 2619 758 2602.36 758 2584 781.52Z" fill="#FFFFFF" fill-rule="evenodd"/><path d="M2619 788 2637.06 788 2654 758 2637.06 758 2619 788Z" fill="#FFFFFF" fill-rule="evenodd"/><path d="M2658 786 2674.39 786 2684 765.84 2682.87 758 2670.43 758 2658 786Z" fill="#FFFFFF" fill-rule="evenodd"/></g></svg>